<svg width="64" height="64" viewBox="0 0 64 64" fill="none" xmlns="http://www.w3.org/2000/svg">
<rect width="64" height="64" rx="11" fill="#5C36C8"/>
<path d="M50 21.7143V23C50 23.1705 49.9368 23.334 49.8243 23.4546C49.7117 23.5751 49.5591 23.6429 49.4 23.6429H47.6V24.6072C47.6 25.1397 47.197 25.5714 46.7 25.5714H17.3C16.803 25.5714 16.4 25.1397 16.4 24.6072V23.6429H14.6C14.4409 23.6429 14.2883 23.5751 14.1757 23.4546C14.0632 23.334 14 23.1705 14 23V21.7143C14 21.5871 14.0352 21.4628 14.1012 21.3571C14.1671 21.2513 14.2609 21.1689 14.3706 21.1203L31.7706 14.0489C31.9175 13.9837 32.0825 13.9837 32.2294 14.0489L49.6294 21.1203C49.7391 21.1689 49.8329 21.2513 49.8988 21.3571C49.9648 21.4628 50 21.5871 50 21.7143V21.7143ZM48.2 46.1429H15.8C14.8059 46.1429 14 47.0063 14 48.0714V49.3571C14 49.5276 14.0632 49.6912 14.1757 49.8117C14.2883 49.9323 14.4409 50 14.6 50H49.4C49.5591 50 49.7117 49.9323 49.8243 49.8117C49.9368 49.6912 50 49.5276 50 49.3571V48.0714C50 47.0063 49.1941 46.1429 48.2 46.1429ZM20 26.8572V42.2857H17.3C16.803 42.2857 16.4 42.7175 16.4 43.25V44.8571H47.6V43.25C47.6 42.7175 47.197 42.2857 46.7 42.2857H44V26.8572H39.2V42.2857H34.4V26.8572H29.6V42.2857H24.8V26.8572H20Z" fill="white"/>
</svg>
